<svg width="117" height="123" viewBox="0 0 117 123" fill="none" xmlns="http://www.w3.org/2000/svg">
<path d="M1 51.5C1 51.5 16.2821 33.2086 30 30.5C40.431 28.4403 46.4876 35.5924 57 34C73.2778 31.5342 76.3958 13.9209 92.5 10.5C101.477 8.59307 115.5 10.5 115.5 10.5" stroke="#FF5151" stroke-width="2" stroke-linecap="round"/>
<path d="M30.5 30.3475C16.7821 33.0562 1.5 51.3475 1.5 51.3475V78.5H116V10.3475C116 10.3475 101.977 8.4406 93 10.3475C76.8958 13.7685 73.7778 31.3817 57.5 33.8475C46.9875 35.4399 40.931 28.2878 30.5 30.3475Z" fill="url(#paint0_linear_1_398)"/>
<path d="M46.28 9.17C46.2133 9.17 46.1567 9.14667 46.11 9.1C46.0633 9.05333 46.04 8.99667 46.04 8.93V6.98H44.12C44.0533 6.98 43.9967 6.95667 43.95 6.91C43.9033 6.86333 43.88 6.80333 43.88 6.73V6.21C43.88 6.13667 43.9033 6.08 43.95 6.04C43.9967 5.99333 44.0533 5.97 44.12 5.97H46.04V4.07C46.04 3.99667 46.0633 3.94 46.11 3.9C46.1567 3.85333 46.2133 3.83 46.28 3.83H46.86C46.9333 3.83 46.99 3.85333 47.03 3.9C47.0767 3.94 47.1 3.99667 47.1 4.07V5.97H49.02C49.0933 5.97 49.15 5.99333 49.19 6.04C49.2367 6.08 49.26 6.13667 49.26 6.21V6.73C49.26 6.80333 49.2367 6.86333 49.19 6.91C49.1433 6.95667 49.0867 6.98 49.02 6.98H47.1V8.93C47.1 8.99667 47.0767 9.05333 47.03 9.1C46.99 9.14667 46.9333 9.17 46.86 9.17H46.28ZM52.7026 9.61C52.1492 9.61 51.6726 9.51667 51.2726 9.33C50.8792 9.14333 50.5759 8.89667 50.3626 8.59C50.1559 8.28333 50.0459 7.95333 50.0326 7.6V7.58C50.0326 7.52667 50.0526 7.48333 50.0926 7.45C50.1326 7.41667 50.1826 7.4 50.2426 7.4H51.1726C51.3259 7.4 51.4259 7.46667 51.4726 7.6C51.5659 7.89333 51.7192 8.11 51.9326 8.25C52.1526 8.39 52.4092 8.46 52.7026 8.46C53.0759 8.46 53.3859 8.34667 53.6326 8.12C53.8859 7.89333 54.0126 7.57667 54.0126 7.17C54.0126 6.81 53.8859 6.51667 53.6326 6.29C53.3859 6.06333 53.0759 5.95 52.7026 5.95C52.5026 5.95 52.3392 5.97667 52.2126 6.03C52.0859 6.08333 51.9626 6.15667 51.8426 6.25C51.7626 6.31 51.6992 6.35333 51.6526 6.38C51.6126 6.4 51.5626 6.41 51.5026 6.41H50.5826C50.5226 6.41 50.4692 6.39 50.4226 6.35C50.3826 6.30333 50.3626 6.25 50.3626 6.19L50.7126 2.77C50.7192 2.69 50.7459 2.62667 50.7926 2.58C50.8459 2.52667 50.9126 2.5 50.9926 2.5H54.7526C54.8192 2.5 54.8759 2.52333 54.9226 2.57C54.9692 2.61667 54.9926 2.67333 54.9926 2.74V3.41C54.9926 3.47667 54.9692 3.53333 54.9226 3.58C54.8759 3.62667 54.8192 3.65 54.7526 3.65H51.8626L51.7026 5.28C52.0292 5.05333 52.4659 4.94 53.0126 4.94C53.4459 4.94 53.8459 5.03333 54.2126 5.22C54.5859 5.4 54.8826 5.66333 55.1026 6.01C55.3226 6.35 55.4326 6.74667 55.4326 7.2C55.4326 7.68667 55.3192 8.11333 55.0926 8.48C54.8659 8.84 54.5459 9.12 54.1326 9.32C53.7259 9.51333 53.2492 9.61 52.7026 9.61ZM57.7638 6.02C57.3238 6.02 56.9704 5.90333 56.7038 5.67C56.4438 5.43667 56.3004 5.12 56.2738 4.72C56.2671 4.60667 56.2638 4.45667 56.2638 4.27C56.2638 4.07 56.2671 3.91 56.2738 3.79C56.3004 3.37667 56.4404 3.05 56.6938 2.81C56.9471 2.57 57.3038 2.45 57.7638 2.45C58.2238 2.45 58.5804 2.57 58.8338 2.81C59.0938 3.05 59.2338 3.37667 59.2538 3.79C59.2671 4.05667 59.2738 4.23 59.2738 4.31C59.2738 4.38333 59.2671 4.52 59.2538 4.72C59.2338 5.12 59.0904 5.43667 58.8238 5.67C58.5638 5.90333 58.2104 6.02 57.7638 6.02ZM56.9438 9.5C56.8838 9.5 56.8338 9.48333 56.7938 9.45C56.7538 9.41 56.7338 9.36 56.7338 9.3C56.7338 9.26 56.7471 9.22333 56.7738 9.19L61.7038 2.69C61.7571 2.62333 61.8071 2.57667 61.8538 2.55C61.9004 2.51667 61.9638 2.5 62.0438 2.5H62.5738C62.6404 2.5 62.6904 2.52 62.7238 2.56C62.7638 2.59333 62.7838 2.64 62.7838 2.7C62.7838 2.74 62.7704 2.77667 62.7438 2.81L57.8138 9.31C57.7604 9.37667 57.7104 9.42667 57.6638 9.46C57.6171 9.48667 57.5538 9.5 57.4738 9.5H56.9438ZM57.7638 5.28C57.9571 5.28 58.1004 5.22333 58.1938 5.11C58.2871 4.99 58.3404 4.84333 58.3538 4.67C58.3671 4.44333 58.3738 4.30333 58.3738 4.25C58.3738 4.17667 58.3671 4.04 58.3538 3.84C58.3471 3.66667 58.2938 3.52333 58.1938 3.41C58.1004 3.29 57.9571 3.23 57.7638 3.23C57.5704 3.23 57.4271 3.29 57.3338 3.41C57.2404 3.52333 57.1904 3.66667 57.1838 3.84C57.1771 3.94 57.1738 4.07667 57.1738 4.25C57.1738 4.41667 57.1771 4.55667 57.1838 4.67C57.1971 4.84333 57.2471 4.99 57.3338 5.11C57.4271 5.22333 57.5704 5.28 57.7638 5.28ZM61.7538 9.56C61.3138 9.56 60.9604 9.44 60.6938 9.2C60.4338 8.95333 60.2904 8.62667 60.2638 8.22C60.2571 8.10667 60.2538 7.95667 60.2538 7.77C60.2538 7.57667 60.2571 7.42 60.2638 7.3C60.2904 6.88667 60.4304 6.56 60.6838 6.32C60.9371 6.08 61.2938 5.96 61.7538 5.96C62.2138 5.96 62.5704 6.08 62.8238 6.32C63.0838 6.56 63.2238 6.88667 63.2438 7.3C63.2571 7.56667 63.2638 7.73667 63.2638 7.81C63.2638 7.88333 63.2571 8.02 63.2438 8.22C63.2171 8.62667 63.0704 8.95333 62.8038 9.2C62.5438 9.44 62.1938 9.56 61.7538 9.56ZM61.7538 8.78C61.9538 8.78 62.0971 8.72333 62.1838 8.61C62.2771 8.49 62.3304 8.34667 62.3438 8.18C62.3571 7.95333 62.3638 7.81333 62.3638 7.76C62.3638 7.68667 62.3571 7.55 62.3438 7.35C62.3371 7.17667 62.2838 7.03 62.1838 6.91C62.0904 6.79 61.9471 6.73 61.7538 6.73C61.5604 6.73 61.4171 6.79 61.3238 6.91C61.2304 7.02333 61.1771 7.17 61.1638 7.35C61.1571 7.45 61.1538 7.58667 61.1538 7.76C61.1538 7.92667 61.1571 8.06667 61.1638 8.18C61.1838 8.35333 61.2371 8.49667 61.3238 8.61C61.4171 8.72333 61.5604 8.78 61.7538 8.78Z" fill="#FF5151"/>
<path d="M52.5 17.5L54.5 15.5M54.5 15.5L56.5 17.5M54.5 15.5V22.5" stroke="#FF5151" stroke-linecap="round" stroke-linejoin="round"/>
<rect x="9" y="98.5" width="107" height="24" rx="4" fill="#FFEFE7"/>
<path d="M22.9258 109.924H25.3047V110.949H22.9258V113.645H21.8359V110.949H19.457V109.924H21.8359V107.434H22.9258V109.924ZM27.0156 110.223L27.4492 105.969H31.8203V106.971H28.3691L28.1113 109.297C28.5293 109.051 29.0039 108.928 29.5352 108.928C30.3125 108.928 30.9297 109.186 31.3867 109.701C31.8438 110.213 32.0723 110.906 32.0723 111.781C32.0723 112.66 31.834 113.354 31.3574 113.861C30.8848 114.365 30.2227 114.617 29.3711 114.617C28.6172 114.617 28.002 114.408 27.5254 113.99C27.0488 113.572 26.7773 112.994 26.7109 112.256H27.7363C27.8027 112.744 27.9766 113.113 28.2578 113.363C28.5391 113.609 28.9102 113.732 29.3711 113.732C29.875 113.732 30.2695 113.561 30.5547 113.217C30.8438 112.873 30.9883 112.398 30.9883 111.793C30.9883 111.223 30.832 110.766 30.5195 110.422C30.2109 110.074 29.7988 109.9 29.2832 109.9C28.8105 109.9 28.4395 110.004 28.1699 110.211L27.8828 110.445L27.0156 110.223ZM33.1621 107.609C33.1621 107.098 33.3242 106.676 33.6484 106.344C33.9766 106.012 34.3965 105.846 34.9082 105.846C35.4277 105.846 35.8477 106.014 36.168 106.35C36.4922 106.682 36.6543 107.113 36.6543 107.645V108.061C36.6543 108.576 36.4902 108.998 36.1621 109.326C35.8379 109.65 35.4238 109.812 34.9199 109.812C34.4121 109.812 33.9922 109.65 33.6602 109.326C33.3281 108.998 33.1621 108.562 33.1621 108.02V107.609ZM33.9707 108.061C33.9707 108.365 34.0566 108.617 34.2285 108.816C34.4004 109.012 34.6309 109.109 34.9199 109.109C35.1973 109.109 35.4199 109.014 35.5879 108.822C35.7598 108.631 35.8457 108.369 35.8457 108.037V107.609C35.8457 107.305 35.7617 107.053 35.5938 106.854C35.4258 106.654 35.1973 106.555 34.9082 106.555C34.6191 106.555 34.3906 106.654 34.2227 106.854C34.0547 107.053 33.9707 107.312 33.9707 107.633V108.061ZM37.3164 112.408C37.3164 111.896 37.4785 111.477 37.8027 111.148C38.1309 110.816 38.5508 110.65 39.0625 110.65C39.5742 110.65 39.9941 110.814 40.3223 111.143C40.6504 111.471 40.8145 111.906 40.8145 112.449V112.865C40.8145 113.377 40.6504 113.799 40.3223 114.131C39.998 114.459 39.582 114.623 39.0742 114.623C38.5664 114.623 38.1465 114.461 37.8145 114.137C37.4824 113.809 37.3164 113.373 37.3164 112.83V112.408ZM38.125 112.865C38.125 113.174 38.2109 113.428 38.3828 113.627C38.5547 113.822 38.7852 113.92 39.0742 113.92C39.3555 113.92 39.5801 113.824 39.748 113.633C39.916 113.438 40 113.174 40 112.842V112.408C40 112.1 39.9141 111.848 39.7422 111.652C39.5742 111.457 39.3477 111.359 39.0625 111.359C38.7852 111.359 38.5586 111.457 38.3828 111.652C38.2109 111.844 38.125 112.104 38.125 112.432V112.865ZM35.166 113.855L34.5508 113.469L38.7168 106.801L39.332 107.188L35.166 113.855ZM46.4277 111.16V114.5H45.3027V105.969H48.4492C49.3828 105.969 50.1133 106.207 50.6406 106.684C51.1719 107.16 51.4375 107.791 51.4375 108.576C51.4375 109.404 51.1777 110.043 50.6582 110.492C50.1426 110.938 49.4023 111.16 48.4375 111.16H46.4277ZM46.4277 110.24H48.4492C49.0508 110.24 49.5117 110.1 49.832 109.818C50.1523 109.533 50.3125 109.123 50.3125 108.588C50.3125 108.08 50.1523 107.674 49.832 107.369C49.5117 107.064 49.0723 106.906 48.5137 106.895H46.4277V110.24ZM56.5469 114.5C56.4844 114.375 56.4336 114.152 56.3945 113.832C55.8906 114.355 55.2891 114.617 54.5898 114.617C53.9648 114.617 53.4512 114.441 53.0488 114.09C52.6504 113.734 52.4512 113.285 52.4512 112.742C52.4512 112.082 52.7012 111.57 53.2012 111.207C53.7051 110.84 54.4121 110.656 55.3223 110.656H56.377V110.158C56.377 109.779 56.2637 109.479 56.0371 109.256C55.8105 109.029 55.4766 108.916 55.0352 108.916C54.6484 108.916 54.3242 109.014 54.0625 109.209C53.8008 109.404 53.6699 109.641 53.6699 109.918H52.5801C52.5801 109.602 52.6914 109.297 52.9141 109.004C53.1406 108.707 53.4453 108.473 53.8281 108.301C54.2148 108.129 54.6387 108.043 55.0996 108.043C55.8301 108.043 56.4023 108.227 56.8164 108.594C57.2305 108.957 57.4453 109.459 57.4609 110.1V113.018C57.4609 113.6 57.5352 114.062 57.6836 114.406V114.5H56.5469ZM54.748 113.674C55.0879 113.674 55.4102 113.586 55.7148 113.41C56.0195 113.234 56.2402 113.006 56.377 112.725V111.424H55.5273C54.1992 111.424 53.5352 111.812 53.5352 112.59C53.5352 112.93 53.6484 113.195 53.875 113.387C54.1016 113.578 54.3926 113.674 54.748 113.674ZM62.8516 112.818C62.8516 112.525 62.7402 112.299 62.5176 112.139C62.2988 111.975 61.9141 111.834 61.3633 111.717C60.8164 111.6 60.3809 111.459 60.0566 111.295C59.7363 111.131 59.498 110.936 59.3418 110.709C59.1895 110.482 59.1133 110.213 59.1133 109.9C59.1133 109.381 59.332 108.941 59.7695 108.582C60.2109 108.223 60.7734 108.043 61.457 108.043C62.1758 108.043 62.7578 108.229 63.2031 108.6C63.6523 108.971 63.877 109.445 63.877 110.023H62.7871C62.7871 109.727 62.6602 109.471 62.4062 109.256C62.1562 109.041 61.8398 108.934 61.457 108.934C61.0625 108.934 60.7539 109.02 60.5312 109.191C60.3086 109.363 60.1973 109.588 60.1973 109.865C60.1973 110.127 60.3008 110.324 60.5078 110.457C60.7148 110.59 61.0879 110.717 61.627 110.838C62.1699 110.959 62.6094 111.104 62.9453 111.271C63.2812 111.439 63.5293 111.643 63.6895 111.881C63.8535 112.115 63.9355 112.402 63.9355 112.742C63.9355 113.309 63.709 113.764 63.2559 114.107C62.8027 114.447 62.2148 114.617 61.4922 114.617C60.9844 114.617 60.5352 114.527 60.1445 114.348C59.7539 114.168 59.4473 113.918 59.2246 113.598C59.0059 113.273 58.8965 112.924 58.8965 112.549H59.9805C60 112.912 60.1445 113.201 60.4141 113.416C60.6875 113.627 61.0469 113.732 61.4922 113.732C61.9023 113.732 62.2305 113.65 62.4766 113.486C62.7266 113.318 62.8516 113.096 62.8516 112.818ZM66.8184 106.625V108.16H68.002V108.998H66.8184V112.93C66.8184 113.184 66.8711 113.375 66.9766 113.504C67.082 113.629 67.2617 113.691 67.5156 113.691C67.6406 113.691 67.8125 113.668 68.0312 113.621V114.5C67.7461 114.578 67.4688 114.617 67.1992 114.617C66.7148 114.617 66.3496 114.471 66.1035 114.178C65.8574 113.885 65.7344 113.469 65.7344 112.93V108.998H64.5801V108.16H65.7344V106.625H66.8184ZM73.2695 108.16L73.2988 108.863C73.7637 108.316 74.3906 108.043 75.1797 108.043C76.0664 108.043 76.6699 108.383 76.9902 109.062C77.2012 108.758 77.4746 108.512 77.8105 108.324C78.1504 108.137 78.5508 108.043 79.0117 108.043C80.4023 108.043 81.1094 108.779 81.1328 110.252V114.5H80.0488V110.316C80.0488 109.863 79.9453 109.525 79.7383 109.303C79.5312 109.076 79.1836 108.963 78.6953 108.963C78.293 108.963 77.959 109.084 77.6934 109.326C77.4277 109.564 77.2734 109.887 77.2305 110.293V114.5H76.1406V110.346C76.1406 109.424 75.6895 108.963 74.7871 108.963C74.0762 108.963 73.5898 109.266 73.3281 109.871V114.5H72.2441V108.16H73.2695ZM82.4863 111.271C82.4863 110.65 82.6074 110.092 82.8496 109.596C83.0957 109.1 83.4355 108.717 83.8691 108.447C84.3066 108.178 84.8047 108.043 85.3633 108.043C86.2266 108.043 86.9238 108.342 87.4551 108.939C87.9902 109.537 88.2578 110.332 88.2578 111.324V111.4C88.2578 112.018 88.1387 112.572 87.9004 113.064C87.666 113.553 87.3281 113.934 86.8867 114.207C86.4492 114.48 85.9453 114.617 85.375 114.617C84.5156 114.617 83.8184 114.318 83.2832 113.721C82.752 113.123 82.4863 112.332 82.4863 111.348V111.271ZM83.5762 111.4C83.5762 112.104 83.7383 112.668 84.0625 113.094C84.3906 113.52 84.8281 113.732 85.375 113.732C85.9258 113.732 86.3633 113.518 86.6875 113.088C87.0117 112.654 87.1738 112.049 87.1738 111.271C87.1738 110.576 87.0078 110.014 86.6758 109.584C86.3477 109.15 85.9102 108.934 85.3633 108.934C84.8281 108.934 84.3965 109.146 84.0684 109.572C83.7402 109.998 83.5762 110.607 83.5762 111.4ZM90.6426 108.16L90.6777 108.957C91.1621 108.348 91.7949 108.043 92.5762 108.043C93.916 108.043 94.5918 108.799 94.6035 110.311V114.5H93.5195V110.305C93.5156 109.848 93.4102 109.51 93.2031 109.291C93 109.072 92.6816 108.963 92.248 108.963C91.8965 108.963 91.5879 109.057 91.3223 109.244C91.0566 109.432 90.8496 109.678 90.7012 109.982V114.5H89.6172V108.16H90.6426ZM97.709 106.625V108.16H98.8926V108.998H97.709V112.93C97.709 113.184 97.7617 113.375 97.8672 113.504C97.9727 113.629 98.1523 113.691 98.4062 113.691C98.5312 113.691 98.7031 113.668 98.9219 113.621V114.5C98.6367 114.578 98.3594 114.617 98.0898 114.617C97.6055 114.617 97.2402 114.471 96.9941 114.178C96.748 113.885 96.625 113.469 96.625 112.93V108.998H95.4707V108.16H96.625V106.625H97.709ZM101.248 108.928C101.729 108.338 102.354 108.043 103.123 108.043C104.463 108.043 105.139 108.799 105.15 110.311V114.5H104.066V110.305C104.062 109.848 103.957 109.51 103.75 109.291C103.547 109.072 103.229 108.963 102.795 108.963C102.443 108.963 102.135 109.057 101.869 109.244C101.604 109.432 101.396 109.678 101.248 109.982V114.5H100.164V105.5H101.248V108.928Z" fill="#303030"/>
<defs>
<linearGradient id="paint0_linear_1_398" x1="37" y1="-10.5" x2="61.5" y2="52" gradientUnits="userSpaceOnUse">
<stop stop-color="#FF5151"/>
<stop offset="1" stop-color="white" stop-opacity="0"/>
</linearGradient>
</defs>
</svg>
